<mxfile host="app.diagrams.net" modified="2024-04-19T12:31:57.237Z" agent="Mozilla/5.0 (Windows NT 10.0; Win64; x64; rv:109.0) Gecko/20100101 Firefox/115.0" version="24.2.5" etag="oaYo7KAzNJQfdHkaecQI" type="github">
  <diagram name="Strona-1" id="W640wuAmRMuAO1KewD5K">
    <mxGraphModel>
      <root>
        <mxCell id="0" />
        <mxCell id="1" parent="0" />
      </root>
    </mxGraphModel>
  </diagram>
</mxfile>
